/* XPM */
static char *_18d9f95be2c4b0bc1513d43867c47731zuzkrIIZAaE0owr[] = {
/* columns rows colors chars-per-pixel */
"42 48 231 2 ",
"   c #010300",
".  c #030A00",
"X  c #0B0D03",
"o  c #040108",
"O  c #140400",
"+  c #1D0501",
"@  c #160C0A",
"#  c #131303",
"$  c #191709",
"%  c #00001D",
"&  c #060718",
"*  c #150C14",
"=  c #191718",
"-  c #0E1810",
";  c #270704",
":  c #2B1903",
">  c #26140A",
",  c #2F1A09",
"<  c #261606",
"1  c #341E0C",
"2  c #3C1C0C",
"3  c #351707",
"4  c #251916",
"5  c #331D11",
"6  c #371812",
"7  c #330D04",
"8  c #1A2000",
"9  c #1F2114",
"0  c #28240B",
"q  c #36240A",
"w  c #2A2418",
"e  c #372512",
"r  c #352A13",
"t  c #382819",
"y  c #29331B",
"u  c #29341B",
"i  c #3A351C",
"p  c #020322",
"a  c #06062C",
"s  c #140E22",
"d  c #0C1128",
"f  c #171628",
"g  c #181837",
"h  c #0E0B38",
"j  c #211B29",
"k  c #1D2334",
"l  c #2E2E2B",
"z  c #282926",
"x  c #3C2D22",
"c  c #372B27",
"v  c #2C3124",
"b  c #2D332A",
"n  c #34342B",
"m  c #33392B",
"M  c #3B3727",
"N  c #272635",
"B  c #2E3337",
"V  c #373736",
"C  c #342E3C",
"Z  c #4A1A11",
"A  c #401912",
"S  c #4A190F",
"D  c #452918",
"F  c #453618",
"G  c #66221F",
"H  c #462B23",
"J  c #4A3423",
"K  c #4A3B2D",
"L  c #473728",
"P  c #53352A",
"I  c #533824",
"U  c #5A2B2A",
"Y  c #652C32",
"T  c #31411D",
"R  c #3A4435",
"E  c #38412C",
"W  c #56441C",
"Q  c #48432A",
"!  c #58462C",
"~  c #464639",
"^  c #5A4633",
"/  c #4B543A",
"(  c #59583C",
")  c #684F39",
"_  c #51613A",
"`  c #1B1A47",
"'  c #1B1A53",
"]  c #2A2546",
"[  c #38394A",
"{  c #383657",
"}  c #2D3156",
"|  c #38376B",
" . c #4D3F42",
".. c #433F68",
"X. c #394440",
"o. c #494B46",
"O. c #4B5545",
"+. c #555749",
"@. c #474955",
"#. c #565956",
"$. c #54504C",
"%. c #6A4E44",
"&. c #744743",
"*. c #695A46",
"=. c #735649",
"-. c #635951",
";. c #5C6649",
":. c #5D6253",
">. c #5B645C",
",. c #656648",
"<. c #676B5E",
"1. c #656757",
"2. c #746A58",
"3. c #6A7559",
"4. c #756C4C",
"5. c #484676",
"6. c #50536B",
"7. c #5B6367",
"8. c #686964",
"9. c #736E6A",
"0. c #6C7664",
"q. c #767A66",
"w. c #696C71",
"e. c #797978",
"r. c #736E75",
"t. c #80333D",
"y. c #915656",
"u. c #A25258",
"i. c #8F5A60",
"p. c #857C75",
"a. c #B8666C",
"s. c #AC6569",
"d. c #857754",
"f. c #C07879",
"g. c #7A8569",
"h. c #778265",
"j. c #7B8674",
"k. c #868C79",
"l. c #8A957C",
"z. c #97977D",
"x. c #8C8566",
"c. c #99A47D",
"v. c #635C88",
"b. c #625990",
"n. c #6A6B92",
"m. c #6E6DA5",
"M. c #524A83",
"N. c #887E86",
"B. c #8B8C8A",
"V. c #8D9384",
"C. c #929A85",
"Z. c #969788",
"A. c #9A9C97",
"S. c #95898B",
"D. c #AD9B93",
"F. c #AD908B",
"G. c #9AA388",
"H. c #9DA397",
"J. c #A3A59B",
"K. c #A5A898",
"L. c #AAB497",
"P. c #ADA493",
"I. c #9392A7",
"U. c #A39DB9",
"Y. c #9EA1B4",
"T. c #AAACA4",
"R. c #A7A9A6",
"E. c #B7ADA9",
"W. c #ADB3A3",
"Q. c #B6B8A9",
"!. c #A2A8B5",
"~. c #B7B9B5",
"^. c #CC9393",
"/. c #E0979E",
"(. c #C6B7AC",
"). c #CCBEBE",
"_. c #FFB1B6",
"`. c #BAC09C",
"'. c #BDC5B7",
"]. c #C6C8A9",
"[. c #C4C8BA",
"{. c #CEDBB5",
"}. c #D4D8BB",
"|. c #B8BBC6",
" X c #BEC5C8",
".X c #C9C9C6",
"XX c #D9C6C0",
"oX c #D3D6CB",
"OX c #D3D5D3",
"+X c #DADBD5",
"@X c #DCDCDC",
"#X c #D4D7D7",
"$X c #D0CFD6",
"%X c #E5DDDA",
"&X c #F2D0D0",
"*X c #DDE1DC",
"=X c #DFE3D5",
"-X c #D8E1CE",
";X c #E7E8C8",
":X c #E2E2DE",
">X c #E6E9DD",
",X c #E5E4D8",
"<X c #EBF2DA",
"1X c #FAFBDB",
"2X c #CED5E9",
"3X c #DCDDE2",
"4X c #D6D8E8",
"5X c #DADDF3",
"6X c #E2DFE9",
"7X c #FFDFE0",
"8X c #DFE2E2",
"9X c #DAE0EE",
"0X c #E5E5E5",
"qX c #E8E4E5",
"wX c #E4E9E4",
"eX c #EAEAE5",
"rX c #E5E5E9",
"tX c #E9E4EA",
"yX c #E6E9EB",
"uX c #EBEBEB",
"iX c #F2ECEB",
"pX c #EEF2ED",
"aX c #EDF6E9",
"sX c #F2F3ED",
"dX c #F9FBE8",
"fX c #EBEBF2",
"gX c #E7E8F9",
"hX c #EDF2F5",
"jX c #F3F4F3",
"kX c #FCFDFC",
"lX c #F8F8F7",
/* pixels */
"rXwX8X8XyXyXyXrXhXB.  #XlX0X@XwXwX*XeX*X*X8X8XwXwX8XeX@XuX:XaX:XwXqX0XwXqX0XrX0X0X0X",
"8XrXwX8XrXyXrX8XuX#XR.o.R.kXuXsXuXaXwXkXhXpXkXpXhX3XuXeX@XeX>XqX:X0XrXwX0X0XqX0X0X0X",
"rXrXrX8X0XrXwX0XwX#XA.- #.T.~.H.H.'.H.W.H.R.R.B.A.kX*X@X:XeXeX:X0X0X0XqX0X0X0X0X0X0X",
"rXrXrXrXrX0XrX*XpXB.o V o.b V v b m b m z l   X l @X0XpXeX+XqXeX0X0XrX0X0X0X0X0X0XwX",
"tX6XrX0X0X0X0X:XlXH.b W. X'.l.G.l.C.l.C.k.9.m B.eXwXeX0XqXjXqX*X0X0X0X0X0XrX0X0X0X0X",
"tXrX0X0X0X:X>XeXH.j.C.Q.'.W.j.;.g.L.G.G.Z.q.O.e.A.OXuXeX:X:X:XuX0X0X0X0XwX0X0X0X0X0X",
"tX6XqX0XqXqXwXpX:.:.-XC.g.3.h./ ;.g.k.k.k.A.0.~ $.kX@X@XeX*XqXuXwXqX0X0XqX0XqXrXqXwX",
"tXtXqXqXqX:XeXaX>.<.-XE u R u l.;.. .   0 q.<.~ O.sX:XqX0XsX@XrXrX0X0X0X0X0X0X0XrX0X",
"tXtX6XqXuXeXoX<.w   m k.l.h.c.8 4.`.].G.3.X 0.<.-.9..XlX@XuX0XtXqX0X0X0X0X0X0X0X0XqX",
"6XiX6X%XqXsX[.= R O./ ,.g.G.1./ c.1XL.}.Z.y ~ 1.<.9 oX0X@XjXwXqXwX0X0X0XrX0X0X0X0XwX",
"6XeXqXeX:X:X~.  '.dX<X. 0.3.. }.1X{.X c.dXQ.  ~ <.o.~.lXqX@X@XuX0X0X0X0XwX0X0X0X0X0X",
"iXqX6XqX6XeXoXX   >.dX. +.h.  <X1X;X;X].].].  w V   '.jX@X0XuX0X0XrX0X0XqX0X0X0X0X0X",
"qXtXwX0X0XaX[.  0.K.,XX / G./ ,.].1X;X;Xz.Q O.M o.8.+XqX@XjXfX*XrX0X0XqXrX0X0X0X0XrX",
"0X0XuXyXwXwX'.m W.*XV.# 3.K.K.$ ,.].z.G.2.X +.+.o.sXjXqX3XeX#XhXqX0X0XwX0X0XqX0X0X0X",
"uX@X8X*X0X:XaXeX<.$   Z.L.Z.Z.Q.;.  # O   M v M $ $.jXqXqXyX:XqX0X0X0X0X0X0X0X0X0XqX",
"8X8XjX8XeX0X:XeX:.= n $ Z.Q.0 y $ < Q ( +.w t w c 4 J.iXsXqXwX0X0X0XwX0X0X0X0X0X0XwX",
"rX0XrX0X0XwXwX>XB.k.-.# ).(.H K ,.2.p.q.,.i J , =.P H ).).iX$XiX@XuXuX0X8X0X0X0X0XrX",
"tX0XwXrX0XwXwX>X%XlXQ.x +XXXF.(.,X}.C.*.~ K , D %.H H x > %XiX6XqX0X0X0XqXqXrXrX0X0X",
"qXtXrX0X0XwX8XwXeXsXD.z D.F.D.F.P.K.Z.L < < : D =.L 6 x > p.iXqXeX0X0XtXrXeXeX0XqXwX",
"qX6XqXrX0XqXwXwX,X>XXXZ.1.$.2.-.+.+.-.L %.; e t =.^ t H x > [.uX*X0XuXwX*XrXuX0X0X0X",
"qXqXqXqXrXwXwXwX0XwXlX,X9.$.-.$.:.:.7 %.^.7 < L *.Q F < t + :.aX>X6X:X0X0X0XeXrX0X0X",
"qXqXqXqXrXwXwX8X0X*XpXqXeXlX6X>XaXW.; y.y.Z 7 F ,.L r q L i # Q.lXuX@XqXuX0X@XeX0X0X",
"qXqX0X0XrXwXyX8XyXwXwX$XeXtX0X3XlXj.6 N.s.^.) t ( Q 0 : F I < ~ +XuXtX0XjXrX@XyX0XrX",
"qXqXqX0XwXwXyXwX8X8XyXhXqX6XuX0XwXO.U ^.u.a.A ! ( 8 q : I I r # A.0XjX@XrXeX8XeX0X0X",
"qXqX0X0X0X0X8XrX8XyX8XfXwX8XyX0X:X4 i.&X_._.S : i x.F D D q q r n $XjX#XeXuXrXqX0XqX",
"qX0XqX0X0X0XrXrX8XyXyX4X9XhX0XjXE.; Y t.a.a.S D / 4.^ D 3 S J Q * e.yXeXqXfX@XwX0XqX",
"0XqX0X0X0X0XwXrX0X0XyX@XpXyX#XjXE.; y./.u.G S ! W r ! ) D P P L w E.:X6X0X0X0XqXqXqX",
"0X0X0X0X0XrXwX8XqX*XyXrXuX8X0XuX%X3 ) 7Xu.Z S ^ ) < F ) P P H w l OX0XqXeX8XuX3X0XrX",
"0X0X0X0XwX0X0X0XuXqX%X*X6XwXkXE.F.7 ; U S ; A F ! : 5 P ^ P L 4 8.|.eXjX@XqXeXyX0XrX",
"0X0X0X0XwXqXqXwX:XwXqX0X:XtXjX-.O 6 A 7 2 2 D : : 1 1 H P c c @ 9.jXqXqX@X0XuXqXqX0X",
"0XrX0X0XqXqXqXqX%XqXiXqXqXeX%X-.P &.D 2 < Q *.*.J J 5 > 5 > z   l kX@X@XjXrXuX@X0X0X",
"0X0X0X0X0XqXwX:XiX+XiX%XeX,XeXE.H P t K i r i Q L 4 4 c o.C C * @.yXrXrX8X0XwXuX0X0X",
"0X0X0XwX0X0X0X0X0XqXeXeX#XlX~.S.~ w 4 $ M y b v 9 b f #.v.6.m.h X.lX4XgX6XuXiXeXqXrX",
"0XrXqXwX0X0X0X0XuX@X#X0XuXkXB.n W.;.E ;.n 0.W.j.<.R N & } m.m.' | lX6XgXuX>XoXqX0X0X",
"0X0X0X0X0X0XwX0XrXwXrX0X@XtXB.o.-Xh.3.3.y V.W.j.h.X.X.d } 5.| ' { I.$XhX+XeXsXeX:X0X",
"0X0X0X0X0X0X0X0XqXqXeXrX0XuXB.z 3.;.g.O.u ,.c.K.l.H. X7.k a a } [ o $XfX>X+XaX+X>XqX",
"0X0X0X0X0X0X0X0XqXrX0X0XeXjXR.#.b O.>.u R h.c.c.G.L.h.h.j.7.X.- B fX$XpX*X>X>XaX>XwX",
"0X0XqXwX0X0X0X0X0XeXeX0X@XuXrXOXX.B R R ;.'.3.h.c.{._ T h.h.X.@.|.rXyX@XeX>X>X=X0X:X",
"qX0X0X0X0XwXqX0XyXrX8XrXqXqXuX3X X2X!.6.X.*XO.R {._ h.;.X.'.>.X.7.|.kXhX8X8XeXeX0X:X",
"rX0X0XrX0XrX0X0XqX*X0XuXeX3XrXrXhX5Xd g X.7.B @.W.l.'.'.- 7.h.k % I.Y.Y.8XhX*XyXqXqX",
"0XqX0X0X0X0XrXqX0X0X0XqX0X0X0X8XgX2Xg d [ [ [  .C @.|.I.p p a ` 5.s p d 5X3XfXrX0XrX",
"0XwX0XrX0XrX0XqX0X0X0X0XrX0XrXrX9X2Xk k { X.[ N N s @.U.p b.b.M.| | ` g gXfX5XtXrXrX",
"0X0X0X0X0XwX0X0X0X0X0X0XqXqXwXyX9X4X& N @.s = 4 = @ * * * ] ] { 5.5.` s 2XgXgXfXrXyX",
"0X0X0X0X0XqX0X0XqXrX0X0XwXrXeXwXB.  #.l o V z O x x H w L * 4 f v...` ] 6XgXrX3XrXrX",
"rX0XwXqX0X0X0X0XqXwX0X0XrXqXwXeX#X#.* X c M J # x.d.4.d.! Q 4.9.& p % s 6XfXrXyXrXrX",
"0X0X0X0X0XwX0X0XrX0X0X0XrXwXrXyXkXr.o j c @ < ! F ! W F ) i q i j j & s @XiX%XqXqXtX",
"0X0X0X0X0XwX0X0X0X0X0X0X0X0XqXqXlXr.* * o > O 6 5 1 3 3 5 5 > 4 j j B 8.oXeXeXwXwXqX",
"wXrX0X0X0X0X0XrX:X0X0XrX0X0X0XrXgX~.r.N.S. .c H H 2 F : ; O ; @ * o e.kX>X,XaX,X:X:X"
};
